<svg xmlns="http://www.w3.org/2000/svg" id="Layer_1" viewBox="0 0 256 256" width="256" height="256"><style>.st0{stroke:#7ba68d;stroke-width:4;stroke-miterlimit:10}.st0,.st1{fill:#bdffd9}.st1,.st2{stroke-width:4;stroke-miterlimit:10}.st1,.st2{stroke:#512500;stroke-linecap:round;stroke-linejoin:round}.st2{fill:#f0de7f;stroke:#70683f}.st3{fill:#70683f}.st4{fill:#947b65;stroke:#512500;stroke-width:4;stroke-miterlimit:10}.st5{fill:#512500}.st6{fill:#fff8d9;stroke:#c2b68a}.st6,.st7,.st8,.st9{stroke-width:4;stroke-miterlimit:10}.st7{fill:#664425;stroke:#512500}.st8{fill:#e12400;stroke:#821500}.st9{fill:none;stroke:#1f5e00;stroke-linecap:round;stroke-linejoin:round}</style><path d="M128.3 243.4l81.2-222.5H47.2z" class="st2"/><path d="M97 87.3l5.4-10.9-7.6-3.3L89.3 84l-7.5-3.3 5.5-10.9-7.7-3.4 2.8-6.4 8 3.5 6.2-12.3-8.7-3.8 2.8-6.4 9 3.9 5.5-10.9 7.5 3.3-5.5 10.9 7.7 3.4 5.4-10.9 7.5 3.3-5.5 10.9 7.7 3.4-2.8 6.4-8-3.5-6.2 12.3 8.6 3.8-2.8 6.4-9-3.9-5.5 10.9-7.3-3.4zm8.5-17.1l6.2-12.3-7.7-3.4-6.1 12.4 7.6 3.3z" class="st3"/></svg>