<svg xmlns="http://www.w3.org/2000/svg" id="Layer_1" viewBox="0 0 256 256" width="256" height="256"><style>.st0{stroke:#7ba68d;stroke-width:4;stroke-miterlimit:10}.st0,.st1{fill:#bdffd9}.st1,.st2{stroke-width:4;stroke-miterlimit:10}.st1,.st2{stroke:#512500;stroke-linecap:round;stroke-linejoin:round}.st2{fill:#f0de7f;stroke:#70683f}.st3{fill:#70683f}.st4{fill:#947b65;stroke:#512500;stroke-width:4;stroke-miterlimit:10}.st5{fill:#512500}.st6{fill:#fff8d9;stroke:#c2b68a}.st6,.st7,.st8,.st9{stroke-width:4;stroke-miterlimit:10}.st7{fill:#664425;stroke:#512500}.st8{fill:#e12400;stroke:#821500}.st9{fill:none;stroke:#1f5e00;stroke-linecap:round;stroke-linejoin:round}</style><circle cx="128" cy="128" r="91" class="st0"/><path d="M68.1 84.4l11.1 7.5m25.5 85.3l-7.5 11.2m73.9-98.3l-7.5 11.2m31.8 30.9l7.5 8.4m-82.6 45.6l7.5 8.4m10.2-133l7.5 8.4m15.3 72.3L147 154m48.9-62.1l-12.7 17.5m-98 52.1l-12.7 17.4m47.6-78.1l8 6.6m39.2 66.5l8 6.6M56.8 128l16.8 8.4m30.8-4.2l-6.8 10.1m3.4-87.8l14.8 9.3" class="st1"/></svg>